<svg width="48" height="31" viewBox="0 0 48 31" fill="none" xmlns="http://www.w3.org/2000/svg">
  <rect x="0.110001" y="0.109971" width="47.22" height="30.22" rx="5.49" fill="white" stroke="#D6DCE5" stroke-width="0.22" />
  <path d="M16.2123 10.665C16.5233 10.276 16.7343 9.75369 16.6787 9.21997C16.2234 9.24261 15.6679 9.52031 15.3462 9.9096C15.0574 10.243 14.8018 10.7871 14.8685 11.2985C15.3795 11.3428 15.8901 11.043 16.2123 10.665Z" fill="#000008" />
  <path d="M16.6729 11.3983C15.9307 11.3541 15.2997 11.8195 14.9453 11.8195C14.5907 11.8195 14.048 11.4206 13.461 11.4313C12.6969 11.4426 11.988 11.8746 11.6003 12.5616C10.8029 13.9361 11.3899 15.9749 12.1653 17.0943C12.5419 17.6481 12.9958 18.2579 13.5938 18.236C14.1588 18.2138 14.3803 17.8701 15.0671 17.8701C15.7534 17.8701 15.9529 18.236 16.5511 18.2249C17.1713 18.2138 17.5591 17.6708 17.9357 17.1164C18.3677 16.4851 18.5445 15.8755 18.5557 15.8421C18.5445 15.831 17.3596 15.3764 17.3486 14.0134C17.3375 12.8721 18.2789 12.3293 18.3232 12.2956C17.7916 11.5093 16.9609 11.4206 16.6729 11.3983Z" fill="#000008" />
  <path d="M23.1349 9.85378C24.748 9.85378 25.8712 10.9657 25.8712 12.5845C25.8712 14.2091 24.7249 15.3268 23.0945 15.3268H21.3085V18.167H20.0182V9.85377L23.1349 9.85378ZM21.3085 14.2437H22.7891C23.9126 14.2437 24.552 13.6388 24.552 12.5903C24.552 11.5418 23.9126 10.9427 22.7949 10.9427H21.3085V14.2437Z" fill="#000008" />
  <path d="M26.2083 16.4445C26.2083 15.3843 27.0206 14.7334 28.461 14.6527L30.1201 14.5548V14.0882C30.1201 13.4141 29.6649 13.0109 28.9046 13.0109C28.1843 13.0109 27.7349 13.3565 27.6256 13.8981H26.4504C26.5195 12.8034 27.4527 11.9969 28.9506 11.9969C30.4197 11.9969 31.3586 12.7746 31.3586 13.9902V18.167H30.1661V17.1703H30.1374C29.786 17.8444 29.0197 18.2706 28.2248 18.2706C27.038 18.2706 26.2083 17.5332 26.2083 16.4445ZM30.1201 15.8972V15.419L28.6279 15.5111C27.8847 15.563 27.4642 15.8914 27.4642 16.4099C27.4642 16.9398 27.9021 17.2855 28.5704 17.2855C29.4402 17.2855 30.1201 16.6864 30.1201 15.8972Z" fill="#000008" />
  <path d="M32.4845 20.3965V19.3883C32.5766 19.4113 32.7839 19.4113 32.8877 19.4113C33.4638 19.4113 33.7749 19.1694 33.9649 18.5472C33.9649 18.5357 34.0745 18.1785 34.0745 18.1727L31.8854 12.1063H33.2333L34.7659 17.0378H34.7888L36.3214 12.1063H37.6349L35.3648 18.4838C34.8466 19.9529 34.2474 20.4253 32.9915 20.4253C32.8877 20.4253 32.5766 20.4138 32.4845 20.3965Z" fill="#000008" />
</svg>
