<svg width="48" height="31" viewBox="0 0 48 31" fill="none" xmlns="http://www.w3.org/2000/svg">
  <rect x="0.110001" y="0.109971" width="47.22" height="30.22" rx="5.49" fill="white" stroke="#D6DCE5" stroke-width="0.22" />
  <path d="M23.5496 17.9734H22.5011V9.81518H25.2806C25.985 9.81518 26.5857 10.05 27.0772 10.5196C27.5795 10.9892 27.8307 11.5626 27.8307 12.2397C27.8307 12.9332 27.5795 13.5066 27.0772 13.9708C26.5912 14.4349 25.9905 14.6643 25.2806 14.6643H23.5496V17.9734ZM23.5496 10.8199V13.665H25.3024C25.7175 13.665 26.0669 13.523 26.34 13.2445C26.6185 12.966 26.7604 12.6274 26.7604 12.2452C26.7604 11.8684 26.6185 11.5353 26.34 11.2568C26.0669 10.9674 25.7229 10.8254 25.3024 10.8254H23.5496V10.8199Z" fill="#3C4043" />
  <path d="M30.5719 12.207C31.3473 12.207 31.9589 12.4145 32.4066 12.8295C32.8544 13.2445 33.0783 13.8124 33.0783 14.5332V17.9734H32.079V17.198H32.0353C31.6039 17.8369 31.0251 18.1536 30.3043 18.1536C29.6872 18.1536 29.1739 17.9734 28.7589 17.6076C28.3439 17.2417 28.1364 16.7885 28.1364 16.2424C28.1364 15.6636 28.3548 15.2049 28.7917 14.8663C29.2285 14.5223 29.8128 14.353 30.5391 14.353C31.1616 14.353 31.6749 14.4677 32.0735 14.697V14.4568C32.0735 14.0909 31.9316 13.7851 31.6421 13.5284C31.3527 13.2718 31.0142 13.1462 30.6265 13.1462C30.0422 13.1462 29.578 13.3919 29.2395 13.8888L28.3166 13.31C28.8245 12.5728 29.578 12.207 30.5719 12.207ZM29.2176 16.2588C29.2176 16.5318 29.3323 16.7612 29.5671 16.9414C29.7964 17.1216 30.0695 17.2144 30.3807 17.2144C30.8231 17.2144 31.2162 17.0506 31.5602 16.7229C31.9043 16.3953 32.079 16.013 32.079 15.5707C31.7514 15.3141 31.2981 15.183 30.7138 15.183C30.2879 15.183 29.933 15.2868 29.649 15.4888C29.3596 15.7018 29.2176 15.9584 29.2176 16.2588Z" fill="#3C4043" />
  <path d="M38.7793 12.3872L35.2845 20.4253H34.2032L35.5029 17.6131L33.1985 12.3872H34.3398L35.9998 16.3953H36.0216L37.638 12.3872H38.7793Z" fill="#3C4043" />
  <path d="M19.3792 14.0035C19.3792 13.6617 19.3486 13.3346 19.2918 13.0201H14.8971V14.8221L17.4281 14.8226C17.3255 15.4222 16.9951 15.9333 16.4889 16.2741V17.4432H17.9955C18.8752 16.629 19.3792 15.4255 19.3792 14.0035Z" fill="#4285F4" />
  <path d="M16.4889 16.2741C16.0695 16.5569 15.53 16.7225 14.8982 16.7225C13.6777 16.7225 12.6424 15.9001 12.2716 14.7916H10.7175V15.9973C11.4875 17.5252 13.07 18.5736 14.8982 18.5736C16.1618 18.5736 17.2228 18.1586 17.9955 17.4432L16.4889 16.2741Z" fill="#34A853" />
  <path d="M12.1252 13.897C12.1252 13.5858 12.1771 13.2849 12.2716 13.002V11.7963H10.7175C10.3991 12.4281 10.22 13.1413 10.22 13.897C10.22 14.6528 10.3997 15.3655 10.7175 15.9973L12.2716 14.7916C12.1771 14.5087 12.1252 14.2083 12.1252 13.897Z" fill="#FABB05" />
  <path d="M14.8982 11.0711C15.5879 11.0711 16.2055 11.3087 16.6931 11.7728L18.0282 10.4388C17.2173 9.68358 16.1601 9.21997 14.8982 9.21997C13.0705 9.21997 11.4874 10.2684 10.7175 11.7963L12.2716 13.002C12.6423 11.8935 13.6777 11.0711 14.8982 11.0711Z" fill="#E94235" />
</svg>
