<svg width="48" height="31" viewBox="0 0 48 31" fill="none" xmlns="http://www.w3.org/2000/svg">
  <rect x="0.110001" y="0.109971" width="47.22" height="30.22" rx="5.49" fill="white" stroke="#D6DCE5" stroke-width="0.22" />
  <path d="M27.3426 8.89697H20.4793V21.2305H27.3426V8.89697Z" fill="#FF5F00" />
  <path d="M20.9151 15.0637C20.914 13.8759 21.1832 12.7034 21.7022 11.635C22.2213 10.5666 22.9766 9.63031 23.911 8.89697C22.7538 7.98745 21.3642 7.42183 19.9008 7.26477C18.4374 7.1077 16.9594 7.36552 15.6356 8.00876C14.3119 8.65201 13.1958 9.65472 12.4149 10.9023C11.6341 12.1499 11.22 13.5919 11.22 15.0637C11.22 16.5355 11.6341 17.9776 12.4149 19.2252C13.1958 20.4727 14.3119 21.4754 15.6356 22.1187C16.9594 22.7619 18.4374 23.0197 19.9008 22.8627C21.3642 22.7056 22.7538 22.14 23.911 21.2305C22.9766 20.4971 22.2213 19.5608 21.7022 18.4924C21.1832 17.424 20.914 16.2515 20.9151 15.0637Z" fill="#EB001B" />
  <path d="M36.6015 15.0637C36.6016 16.5355 36.1876 17.9776 35.4068 19.2251C34.626 20.4727 33.5099 21.4754 32.1862 22.1187C30.8624 22.7619 29.3844 23.0197 27.921 22.8627C26.4577 22.7056 25.068 22.14 23.911 21.2305C24.8445 20.4964 25.5992 19.5599 26.1182 18.4917C26.6372 17.4235 26.9068 16.2513 26.9068 15.0637C26.9068 13.8761 26.6372 12.704 26.1182 11.6357C25.5992 10.5675 24.8445 9.63105 23.911 8.89697C25.068 7.98745 26.4577 7.42183 27.921 7.26477C29.3844 7.1077 30.8624 7.36553 32.1862 8.00878C33.5099 8.65203 34.626 9.65475 35.4068 10.9023C36.1876 12.1499 36.6016 13.592 36.6015 15.0637Z" fill="#F79E1B" />
  <path d="M35.8532 19.9242V19.6717H35.955V19.6202H35.6957V19.6717H35.7976V19.9242H35.8532ZM36.3566 19.9242V19.6197H36.2771L36.1857 19.8291L36.0943 19.6197H36.0147V19.9242H36.0709V19.6945L36.1566 19.8925H36.2148L36.3005 19.694V19.9242H36.3566Z" fill="#F79E1B" />
</svg>
