<svg width="48" height="31" viewBox="0 0 48 31" fill="none" xmlns="http://www.w3.org/2000/svg">
  <rect x="0.110001" y="0.109971" width="47.22" height="30.22" rx="5.49" fill="white" stroke="#D6DCE5" stroke-width="0.22" />
  <path fill-rule="evenodd" clip-rule="evenodd" d="M11.3663 10.2209H8.67878C8.49487 10.2209 8.33846 10.3546 8.30978 10.5361L7.22282 17.4268C7.20122 17.5628 7.30653 17.6854 7.44447 17.6854H8.7275C8.91141 17.6854 9.06782 17.5517 9.0965 17.3699L9.38967 15.5114C9.41794 15.3294 9.57474 15.1959 9.75827 15.1959H10.609C12.3794 15.1959 13.401 14.3393 13.668 12.6419C13.7882 11.8993 13.6731 11.3158 13.3252 10.907C12.9433 10.4584 12.2657 10.2209 11.3663 10.2209ZM11.6763 12.7377C11.5294 13.702 10.7926 13.702 10.0801 13.702H9.67456L9.95907 11.9011C9.97596 11.7923 10.0703 11.7122 10.1803 11.7122H10.3662C10.8515 11.7122 11.3094 11.7122 11.5459 11.9887C11.6869 12.1538 11.7302 12.3989 11.6763 12.7377ZM19.3999 12.7068H18.1129C18.0032 12.7068 17.9085 12.787 17.8916 12.8959L17.8346 13.2557L17.7446 13.1254C17.466 12.721 16.8448 12.5859 16.2247 12.5859C14.8024 12.5859 13.5878 13.6629 13.3512 15.1737C13.2283 15.9272 13.403 16.6478 13.8306 17.1504C14.2228 17.6125 14.784 17.805 15.4516 17.805C16.5975 17.805 17.2331 17.0682 17.2331 17.0682L17.1756 17.4259C17.154 17.5626 17.2593 17.6852 17.3964 17.6852H18.5557C18.7401 17.6852 18.8956 17.5515 18.9247 17.3697L19.6203 12.9653C19.6423 12.8299 19.5373 12.7068 19.3999 12.7068ZM17.6059 15.2113C17.4817 15.9465 16.8981 16.44 16.1539 16.44C15.7802 16.44 15.4814 16.3202 15.2898 16.0931C15.0996 15.8676 15.0272 15.5465 15.0877 15.189C15.2038 14.46 15.7971 13.9505 16.53 13.9505C16.8954 13.9505 17.1925 14.0718 17.3882 14.3009C17.5842 14.5324 17.6621 14.8553 17.6059 15.2113ZM24.9608 12.7066H26.2541C26.4352 12.7066 26.5409 12.9097 26.438 13.0583L22.1366 19.2664C22.0669 19.367 21.9522 19.4268 21.8296 19.4268H20.5379C20.356 19.4268 20.2498 19.222 20.3551 19.0731L21.6945 17.1828L20.27 13.0028C20.2207 12.8575 20.328 12.7066 20.4826 12.7066H21.7534C21.9185 12.7066 22.0642 12.815 22.1118 12.973L22.8678 15.4976L24.6516 12.8704C24.7214 12.7679 24.8375 12.7066 24.9608 12.7066Z" fill="#253B80" />
  <path fill-rule="evenodd" clip-rule="evenodd" d="M38.9833 17.4262L40.0863 10.4094C40.1032 10.3005 40.1976 10.2203 40.3072 10.22H41.5489C41.686 10.22 41.7913 10.3429 41.7697 10.4789L40.682 17.3693C40.6537 17.5511 40.4973 17.6848 40.313 17.6848H39.2041C39.067 17.6848 38.9617 17.5622 38.9833 17.4262ZM30.5364 10.2203H27.8484C27.6649 10.2203 27.5085 10.354 27.4798 10.5354L26.3928 17.4262C26.3712 17.5622 26.4765 17.6848 26.6138 17.6848H27.993C28.1212 17.6848 28.2308 17.5913 28.2509 17.464L28.5593 15.5108C28.5876 15.3287 28.7444 15.1953 28.9279 15.1953H29.7782C31.549 15.1953 32.5704 14.3387 32.8376 12.6413C32.9581 11.8986 32.8423 11.3151 32.4946 10.9064C32.1129 10.4578 31.4358 10.2203 30.5364 10.2203ZM30.8465 12.7371C30.6999 13.7013 29.963 13.7013 29.2501 13.7013H28.845L29.1299 11.9005C29.1468 11.7917 29.2403 11.7115 29.3507 11.7115H29.5366C30.0216 11.7115 30.4798 11.7115 30.7162 11.9881C30.8574 12.1532 30.9003 12.3983 30.8465 12.7371ZM38.5692 12.7062H37.2832C37.1726 12.7062 37.0788 12.7864 37.0622 12.8953L37.0053 13.2551L36.9149 13.1247C36.6363 12.7204 36.0155 12.5853 35.3953 12.5853C33.9731 12.5853 32.7588 13.6622 32.5222 15.1731C32.3997 15.9266 32.5737 16.6472 33.0012 17.1498C33.3942 17.6118 33.9547 17.8044 34.6223 17.8044C35.7681 17.8044 36.4035 17.0676 36.4035 17.0676L36.3463 17.4253C36.3246 17.562 36.4299 17.6846 36.5679 17.6846H37.7267C37.9102 17.6846 38.0666 17.5509 38.0953 17.3691L38.7913 12.9647C38.8126 12.8293 38.7073 12.7062 38.5692 12.7062ZM36.7754 15.2107C36.652 15.9459 36.0677 16.4394 35.3233 16.4394C34.9504 16.4394 34.651 16.3196 34.4592 16.0924C34.2689 15.867 34.1975 15.5459 34.2573 15.1884C34.3739 14.4594 34.9665 13.9499 35.6994 13.9499C36.0649 13.9499 36.3619 14.0712 36.5578 14.3003C36.7545 14.5318 36.8324 14.8547 36.7754 15.2107Z" fill="#179BD7" />
</svg>