<svg width="48" height="31" viewBox="0 0 48 31" fill="none" xmlns="http://www.w3.org/2000/svg">
  <rect x="0.110001" y="0.109971" width="47.22" height="30.22" rx="5.49" fill="white" stroke="#D6DCE5" stroke-width="0.22" />
  <path d="M23.3311 10.4059L21.1569 20.5695H18.5278L20.7023 10.4059H23.3311ZM34.3928 16.9685L35.777 13.1518L36.5735 16.9685H34.3928ZM37.3262 20.5695H39.7581L37.636 10.4059H35.3913C34.8869 10.4059 34.4613 10.6993 34.2718 11.1516L30.3274 20.5695H33.0884L33.6365 19.0518H37.0097L37.3262 20.5695ZM30.4644 17.251C30.4757 14.5685 26.7548 14.4208 26.7805 13.2226C26.7882 12.8574 27.136 12.4701 27.8955 12.3707C28.2728 12.3215 29.3102 12.2839 30.4882 12.8259L30.9495 10.6706C30.3168 10.441 29.5026 10.22 28.4899 10.22C25.8914 10.22 24.0623 11.6016 24.0469 13.5799C24.0304 15.043 25.3526 15.8594 26.3488 16.3458C27.373 16.8441 27.7172 17.1632 27.7127 17.6087C27.706 18.291 26.8957 18.5914 26.1397 18.6033C24.8176 18.6242 24.0504 18.2466 23.4389 17.9616L22.9625 20.1886C23.5766 20.4707 24.7105 20.7158 25.8869 20.7284C28.6485 20.7284 30.4554 19.3638 30.4644 17.251ZM19.5742 10.4059L15.3145 20.5695H12.5348L10.4387 12.4582C10.3114 11.9587 10.2007 11.7759 9.81372 11.5652C9.18226 11.2227 8.1384 10.9007 7.22 10.7012L7.28273 10.4059H11.7564C12.3264 10.4059 12.8395 10.7855 12.9688 11.442L14.076 17.3237L16.8119 10.4059H19.5742Z" fill="#1434CB" />
</svg>
                            